simulation
nRows=74
nColumns=15
endheader
time  TH_x TH_y TH_z SC_y  SC_z  SC_x  AC_y  AC_z  AC_x  GH_y  GH_z  GH_yy  EL_x  PS_y
0.000000  0.000000  0.000000  0.000000  -23.541068  1.075071  -8.647216  55.650236  13.827230  2.753045  -14.868760  12.425830  69.669649  14.150381  58.632220
0.031313  0.000000  0.000000  0.000000  -23.484491  0.982283  -8.872433  55.754969  13.996116  2.738362  -14.377896  12.371496  68.975713  13.913080  59.059248
0.062626  0.000000  0.000000  0.000000  -23.403661  0.899600  -9.054330  55.822837  14.122986  2.718149  -14.053839  12.371888  68.500022  13.781279  59.328947
0.093939  0.000000  0.000000  0.000000  -23.305648  0.830657  -9.195884  55.855064  14.212075  2.692080  -13.900429  12.437910  68.218243  13.784793  59.479789
0.125253  0.000000  0.000000  0.000000  -23.197523  0.779090  -9.298487  55.853114  14.266302  2.658867  -13.921509  12.580465  68.106043  13.953434  59.550248
0.156566  0.000000  0.000000  0.000000  -23.086357  0.748534  -9.364474  55.818314  14.289375  2.617711  -14.120919  12.810458  68.139089  14.317016  59.578799
0.187879  0.000000  0.000000  0.000000  -22.979220  0.742625  -9.396206  55.751969  14.285043  2.567747  -14.502501  13.138791  68.293046  14.905354  59.603914
0.219192  0.000000  0.000000  0.000000  -22.883184  0.764997  -9.396553  55.655283  14.257513  2.508315  -15.070096  13.576368  68.543581  15.748260  59.664067
0.250505  0.000000  0.000000  0.000000  -22.805318  0.819287  -9.367008  55.529631  14.209900  2.437849  -15.827546  14.134093  68.866361  16.875548  59.797731
0.281818  0.000000  0.000000  0.000000  -22.752695  0.909129  -9.310262  55.376183  14.146369  2.355363  -16.778691  14.822869  69.237052  18.317032  60.043381
0.313131  0.000000  0.000000  0.000000  -22.732384  1.038159  -9.229375  55.196040  14.071458  2.259963  -17.927372  15.653600  69.631320  20.102525  60.439490
0.344444  0.000000  0.000000  0.000000  -22.750848  1.209715  -9.126457  54.990766  13.989105  2.150264  -19.275767  16.635826  70.026043  22.258191  61.021134
0.375758  0.000000  0.000000  0.000000  -22.804637  1.422294  -9.004832  54.767302  13.905923  2.028631  -20.798935  17.756882  70.417801  24.750752  61.768080
0.407071  0.000000  0.000000  0.000000  -22.882235  1.670458  -8.865730  54.537408  13.828093  1.898884  -22.449877  18.986037  70.819207  27.498567  62.615093
0.438384  0.000000  0.000000  0.000000  -22.971894  1.948652  -8.713491  54.312544  13.764262  1.767068  -24.180951  20.292036  71.243339  30.418594  63.495632
0.469697  0.000000  0.000000  0.000000  -23.061866  2.251321  -8.549655  54.104582  13.720659  1.637897  -25.944519  21.643623  71.703276  33.427788  64.343156
0.501010  0.000000  0.000000  0.000000  -23.140555  2.572940  -8.375196  53.925216  13.702849  1.516004  -27.693257  23.009773  72.211847  36.443906  65.091866
0.532323  0.000000  0.000000  0.000000  -23.203663  2.909326  -8.182163  53.775521  13.705788  1.398528  -29.394882  24.370249  72.770173  39.422461  65.711062
0.563636  0.000000  0.000000  0.000000  -23.257190  3.258194  -7.981637  53.637014  13.735153  1.290859  -31.038338  25.720049  73.362842  42.372280  66.219596
0.594949  0.000000  0.000000  0.000000  -23.307916  3.617401  -7.738967  53.496553  13.759520  1.169997  -32.614177  27.055324  73.973192  45.306215  66.640062
0.626263  0.000000  0.000000  0.000000  -23.362618  3.984804  -7.465636  53.334327  13.784763  1.040775  -34.112949  28.372222  74.584561  48.237120  66.995056
0.657576  0.000000  0.000000  0.000000  -23.428070  4.358257  -7.150192  53.133876  13.798422  0.893693  -35.525214  29.666905  75.180289  51.177833  67.307156
0.688889  0.000000  0.000000  0.000000  -23.509004  4.733830  -6.784166  52.888805  13.789463  0.720633  -36.845259  30.940043  75.744120  54.135947  67.592482
0.720202  0.000000  0.000000  0.000000  -23.605018  5.103118  -6.400283  52.612960  13.776784  0.538997  -38.076745  32.203640  76.260821  57.105861  67.850917
0.751515  0.000000  0.000000  0.000000  -23.714917  5.457022  -6.001879  52.328571  13.755174  0.348427  -39.224780  33.471452  76.715312  60.079938  68.079833
0.782828  0.000000  0.000000  0.000000  -23.837504  5.786443  -5.622617  52.053303  13.743245  0.168124  -40.294472  34.757236  77.092516  63.050538  68.276605
0.814141  0.000000  0.000000  0.000000  -23.971584  6.082283  -5.272986  51.808222  13.740952  0.003357  -41.290930  36.074748  77.377355  66.010023  68.438606
0.845455  0.000000  0.000000  0.000000  -24.116626  6.338710  -4.966156  51.609359  13.752600  -0.138375  -42.217845  37.430905  77.559848  68.947224  68.563127
0.876768  0.000000  0.000000  0.000000  -24.275205  6.565204  -4.701259  51.453302  13.782636  -0.257676  -43.072273  38.800584  77.653890  71.834431  68.647077
0.908081  0.000000  0.000000  0.000000  -24.450808  6.775720  -4.463275  51.332527  13.827820  -0.364235  -43.849327  40.149283  77.680365  74.639096  68.687250
0.939394  0.000000  0.000000  0.000000  -24.646922  6.984218  -4.246513  51.238124  13.892324  -0.461993  -44.544120  41.442502  77.660156  77.328669  68.680443
0.970707  0.000000  0.000000  0.000000  -24.867033  7.204655  -4.038627  51.162244  13.975206  -0.559323  -45.151765  42.645738  77.614146  79.870599  68.623452
1.002020  0.000000  0.000000  0.000000  -25.113858  7.449566  -3.835089  51.096336  14.080712  -0.659568  -45.669057  43.727688  77.562918  82.234959  68.514300
1.033333  0.000000  0.000000  0.000000  -25.383113  7.718527  -3.625100  51.037206  14.199476  -0.769331  -46.108092  44.686146  77.524313  84.415668  68.362188
1.064646  0.000000  0.000000  0.000000  -25.666778  8.004201  -3.419249  50.980595  14.334103  -0.880940  -46.489132  45.534437  77.514708  86.419376  68.182278
1.095960  0.000000  0.000000  0.000000  -25.956797  8.299183  -3.210613  50.925028  14.473542  -0.998098  -46.832517  46.286034  77.550467  88.252853  67.989791
1.127273  0.000000  0.000000  0.000000  -26.245117  8.596070  -3.003745  50.867173  14.615677  -1.117088  -47.158588  46.954408  77.647955  89.922869  67.799946
1.158586  0.000000  0.000000  0.000000  -26.523748  8.887540  -2.798031  50.804635  14.754387  -1.237564  -47.487040  47.552793  77.822606  91.436110  67.627697
1.189899  0.000000  0.000000  0.000000  -26.786052  9.167947  -2.595043  50.737100  14.885253  -1.357420  -47.824473  48.089615  78.070951  92.797559  67.482530
1.221212  0.000000  0.000000  0.000000  -27.026656  9.433205  -2.398035  50.666256  15.005164  -1.473122  -48.165253  48.568808  78.371867  94.010610  67.368835
1.252525  0.000000  0.000000  0.000000  -27.240233  9.679290  -2.211068  50.593731  15.111616  -1.580587  -48.503280  48.994133  78.703552  95.078598  67.290805
1.283838  0.000000  0.000000  0.000000  -27.421457  9.902177  -2.031173  50.522346  15.196674  -1.680346  -48.832453  49.369353  79.044209  96.004855  67.252630
1.315152  0.000000  0.000000  0.000000  -27.565073  10.097869  -1.870632  50.452303  15.264218  -1.762890  -49.146715  49.698217  79.372145  96.792745  67.258384
1.346465  0.000000  0.000000  0.000000  -27.670763  10.264111  -1.725294  50.387705  15.308678  -1.829673  -49.442993  49.983655  79.673061  97.447614  67.303784
1.377778  0.000000  0.000000  0.000000  -27.746228  10.401487  -1.596109  50.333534  15.333689  -1.879026  -49.723065  50.227262  79.944663  97.978032  67.370985
1.409091  0.000000  0.000000  0.000000  -27.799901  10.510842  -1.485402  50.294690  15.344400  -1.908348  -49.989150  50.430511  80.185758  98.392865  67.440899
1.440404  0.000000  0.000000  0.000000  -27.840219  10.593018  -1.389375  50.277152  15.341230  -1.919059  -50.243469  50.594876  80.395153  98.700979  67.494437
1.471717  0.000000  0.000000  0.000000  -27.875612  10.648861  -1.312518  50.285450  15.330958  -1.907071  -50.488241  50.721829  80.571656  98.911239  67.512516
1.503030  0.000000  0.000000  0.000000  -27.911820  10.680448  -1.254611  50.320779  15.315627  -1.872971  -50.722850  50.811951  80.714795  99.033157  67.484505
1.534343  0.000000  0.000000  0.000000  -27.946699  10.693465  -1.205640  50.373852  15.286528  -1.828391  -50.938392  50.863207  80.826207  99.078127  67.424488
1.565657  0.000000  0.000000  0.000000  -27.976670  10.694256  -1.182396  50.428488  15.255044  -1.768095  -51.124452  50.873091  80.907915  99.057888  67.351050
1.596970  0.000000  0.000000  0.000000  -27.998156  10.689161  -1.160978  50.475602  15.201246  -1.713764  -51.270615  50.839092  80.961939  98.984180  67.282774
1.628283  0.000000  0.000000  0.000000  -28.007579  10.684526  -1.160426  50.498655  15.138327  -1.658738  -51.366470  50.758704  80.990301  98.868741  67.238245
1.659596  0.000000  0.000000  0.000000  -28.001939  10.685733  -1.165582  50.489694  15.053966  -1.617294  -51.404445  50.629945  80.996321  98.721242  67.232665
1.690909  0.000000  0.000000  0.000000  -27.981411  10.692903  -1.181737  50.451782  14.956224  -1.581194  -51.392601  50.453732  80.990460  98.539987  67.262659
1.722222  0.000000  0.000000  0.000000  -27.947254  10.704358  -1.199433  50.395475  14.843342  -1.548813  -51.344344  50.231973  80.985619  98.319397  67.318503
1.753535  0.000000  0.000000  0.000000  -27.900732  10.718415  -1.211588  50.330900  14.715396  -1.516938  -51.273082  49.966578  80.994701  98.053889  67.390467
1.784848  0.000000  0.000000  0.000000  -27.843104  10.733396  -1.216811  50.267198  14.576836  -1.478575  -51.192223  49.659455  81.030608  97.737880  67.468821
1.816162  0.000000  0.000000  0.000000  -27.775365  10.747490  -1.210417  50.213980  14.428619  -1.429489  -51.114166  49.311998  81.104760  97.364355  67.544587
1.847475  0.000000  0.000000  0.000000  -27.695579  10.757497  -1.202931  50.177626  14.272980  -1.362164  -51.040291  48.919976  81.212370  96.910689  67.617002
1.878788  0.000000  0.000000  0.000000  -27.600010  10.759357  -1.199417  50.164973  14.101542  -1.276844  -50.965196  48.475699  81.338680  96.344641  67.690359
1.910101  0.000000  0.000000  0.000000  -27.484894  10.748997  -1.222171  50.180070  13.919050  -1.162423  -50.883377  47.971424  81.468785  95.633834  67.769024
1.941414  0.000000  0.000000  0.000000  -27.346468  10.722345  -1.281715  50.228930  13.721217  -1.015587  -50.789332  47.399408  81.587780  94.745886  67.857364
1.972727  0.000000  0.000000  0.000000  -27.181089  10.675277  -1.377899  50.318724  13.496036  -0.840167  -50.677265  46.752010  81.681056  93.649053  67.959542
2.004040  0.000000  0.000000  0.000000  -26.988230  10.602315  -1.527036  50.440714  13.256128  -0.631412  -50.533695  46.024182  81.741729  92.328128  68.074401
2.035354  0.000000  0.000000  0.000000  -26.770703  10.496530  -1.714905  50.576599  13.003444  -0.407030  -50.336909  45.213659  81.771187  90.785616  68.195084
2.066667  0.000000  0.000000  0.000000  -26.531484  10.350923  -1.930083  50.706929  12.742679  -0.182934  -50.064793  44.318312  81.771228  89.024893  68.314455
2.097980  0.000000  0.000000  0.000000  -26.273548  10.158495  -2.160884  50.812263  12.478255  0.024906  -49.695230  43.336012  81.743645  87.049334  68.425379
2.129293  0.000000  0.000000  0.000000  -25.999874  9.912304  -2.396647  50.873123  12.215273  0.201348  -49.206317  42.264671  81.690248  84.862340  68.520749
2.160606  0.000000  0.000000  0.000000  -25.713842  9.611623  -2.631062  50.884161  11.958169  0.340717  -48.598808  41.106623  81.614256  82.470040  68.596689
2.191919  0.000000  0.000000  0.000000  -25.419576  9.267366  -2.869187  50.866111  11.712753  0.457025  -47.915899  39.872481  81.521531  79.883670  68.655368
2.223232  0.000000  0.000000  0.000000  -25.121282  8.891728  -3.104987  50.844167  11.475466  0.558442  -47.205452  38.573768  81.418224  77.115027  68.699624
2.254545  0.000000  0.000000  0.000000  -24.823166  8.496903  -3.351601  50.840990  11.257685  0.665459  -46.515332  37.222009  81.310488  74.175909  68.732290
2.285859  0.000000  0.000000  0.000000  -24.529437  8.095084  -3.608507  50.881001  11.060276  0.789679  -45.893395  35.828727  81.204472  71.078116  68.756202
